<svg width="64" height="64" viewBox="0 0 64 64" fill="none" xmlns="http://www.w3.org/2000/svg">
<path d="M32.3891 63.9515C49.7508 63.757 63.9514 49.7023 64 32.0001C64 14.298 49.7021 -0.0485089 31.9027 0.000123277C14.2979 0.000123277 0.0486322 14.298 0 31.9515C0 49.605 14.3465 64.146 32.3891 63.9515ZM32 1.07003C48.9726 1.07003 62.7356 14.7357 62.8815 31.6597C63.0274 48.8755 49.1672 62.833 32.0486 62.8816C15.0274 62.9302 1.26444 49.2159 1.11854 32.3405C0.924012 15.0761 14.7842 1.07003 32 1.07003Z" fill="#964E30"/>
<path d="M11.1856 48.5839C11.4774 48.3407 11.7692 48.0975 12.061 47.903C12.3527 47.6598 12.6445 47.4653 12.9363 47.2221C14.1521 48.7297 15.4652 50.0428 16.9728 51.21C16.681 51.5991 16.3892 51.9881 16.0488 52.4258C15.1248 51.5504 14.2008 50.7237 13.3254 49.8969C13.0336 49.6051 12.6932 49.5565 12.4014 49.8483C11.8178 50.3832 11.2828 50.9182 10.6992 51.4532C10.3588 51.7936 10.3102 52.0367 10.6506 52.3772C11.2342 53.0094 11.8178 53.593 12.45 54.1766C12.985 54.6629 13.6172 55.1006 14.2008 55.5383C14.8816 56.0732 15.6111 56.5595 16.3406 57.0459C16.6324 57.2404 16.8755 57.4349 17.1673 57.5808C17.5564 57.7753 17.8968 57.6781 18.0913 57.3377C18.2859 56.9972 18.4804 56.6568 18.6749 56.3164C19.0154 55.7328 19.3072 55.1492 19.5989 54.5656C19.7935 54.1766 20.0366 53.7875 20.2312 53.3984C21.9333 54.3225 23.6354 55.0519 25.5321 55.5383C25.3862 55.9759 25.2889 56.4623 25.143 56.9486C24.5594 56.7541 23.9758 56.6568 23.4409 56.4623C22.8087 56.2191 22.2251 55.9759 21.5929 55.7328C21.2524 55.5869 21.0093 55.6842 20.8148 56.0246C20.4257 56.8027 20.0853 57.5808 19.7448 58.3103C19.6476 58.5535 19.6476 58.7966 19.8907 58.9425C20.3771 59.1857 20.8634 59.4775 21.3983 59.672C23.0032 60.1583 24.6567 60.6446 26.3102 61.0823C26.8938 61.2282 27.526 61.2769 28.1096 61.3255C28.5473 61.3741 28.8391 61.1796 28.8877 60.8392C28.985 59.8665 29.0822 58.9425 29.1795 57.9699C29.2281 57.4349 29.2768 56.9 29.374 56.3164C31.3193 56.5109 33.1673 56.5109 35.064 56.2677C35.1126 56.7541 35.2099 57.1917 35.2585 57.6781C35.1126 57.6781 35.0154 57.7267 34.8695 57.7267C33.7509 57.7753 32.6324 57.824 31.5138 57.8726C31.1248 57.8726 30.8816 58.1158 30.8816 58.5048C30.833 59.2829 30.833 60.0611 30.7844 60.8878C30.7844 61.2282 30.8816 61.4228 31.222 61.52C31.3679 61.5687 31.5138 61.5686 31.6597 61.5686C33.3132 61.6173 34.9181 61.52 36.523 61.2282C37.5929 61.0337 38.6628 60.8392 39.6841 60.596C40.1704 60.4987 40.2676 60.207 40.1704 59.7206C39.7813 58.3589 39.3923 57.0459 39.0032 55.6842C39.0032 55.6355 38.9546 55.5383 38.9546 55.4896C40.754 54.906 42.5047 54.2252 44.1582 53.2525C44.4014 53.6902 44.6445 54.0793 44.8877 54.517C44.3041 54.8088 43.7692 55.1492 43.1856 55.3924C42.602 55.6842 42.0184 55.8787 41.4348 56.1705C41.0944 56.3164 40.9971 56.6082 41.143 56.9486C41.3862 57.6781 41.678 58.4076 41.9211 59.1857C42.067 59.6234 42.4075 59.7693 42.8451 59.5747C43.8178 59.137 44.8391 58.6507 45.8117 58.213C46.0549 58.1158 46.298 57.9212 46.5412 57.7753C47.2707 57.3377 48.0002 56.9 48.7296 56.4623C49.216 56.1705 49.6537 55.7814 50.0913 55.441C50.3345 55.2465 50.3831 54.8574 50.1886 54.6143C49.9454 54.2738 49.6537 53.9334 49.3619 53.593C48.8269 52.9121 48.2433 52.2313 47.7084 51.599C47.6111 51.4531 47.5138 51.3559 47.4166 51.21C47.3679 51.1614 47.4166 51.0155 47.4652 50.9668C47.8543 50.5778 48.292 50.2373 48.681 49.8483C49.3619 49.1674 49.9941 48.4866 50.6749 47.8057C50.9181 47.5626 51.064 47.3194 51.3071 47.0276C51.6962 47.3194 52.0853 47.6112 52.4743 47.903C52.2312 48.1948 52.0366 48.4866 51.8421 48.7297C51.2099 49.4106 50.5777 50.0914 49.9454 50.7723C49.6536 51.0641 49.6536 51.3073 49.9454 51.599C50.4804 52.1826 51.064 52.7662 51.5989 53.3498C51.9394 53.6902 52.1825 53.6902 52.523 53.3498C52.8147 53.058 53.1065 52.7662 53.3983 52.4744C53.9333 51.8908 54.5169 51.3073 55.0032 50.675C55.684 49.7997 56.2676 48.9243 56.8999 48.0003C57.143 47.6598 57.3862 47.2708 57.5807 46.9304C57.8239 46.4927 57.7266 46.1522 57.2889 45.9091C56.2676 45.3255 55.2464 44.7419 54.2251 44.207C53.9819 44.0611 53.6901 43.9638 53.447 43.8665C54.371 42.1644 55.1005 40.4136 55.5868 38.517C56.0731 38.6629 56.5108 38.8088 56.9971 38.906C56.8026 39.5383 56.6567 40.1705 56.4135 40.8027C56.219 41.3377 55.9758 41.9212 55.7327 42.4562C55.5868 42.8453 55.684 43.0884 56.0245 43.2829C56.754 43.6234 57.4834 43.9152 58.2129 44.3042C58.602 44.4987 58.9424 44.3528 59.1369 43.9638C59.3315 43.5261 59.5746 43.0884 59.6719 42.6507C60.1096 41.1918 60.5473 39.7814 60.9363 38.2738C61.1309 37.5443 61.1795 36.7662 61.2768 36.0367C61.3254 35.5018 61.1309 35.2586 60.5959 35.21C59.8178 35.1614 59.0397 35.1127 58.3102 35.0155C57.6293 34.9668 56.9971 34.8696 56.3163 34.7723C56.3649 33.7997 56.4135 32.9243 56.4135 32.0003C56.4135 31.0763 56.3163 30.1522 56.2676 29.2282C56.7053 29.1796 57.143 29.131 57.6293 29.0337C57.6293 29.131 57.678 29.2282 57.678 29.3255C57.7266 30.3954 57.7752 31.4653 57.8239 32.5352C57.8239 32.9729 58.0184 33.2161 58.4075 33.2161C59.2342 33.2647 60.0123 33.3133 60.8391 33.3133C61.2281 33.3133 61.4713 33.1188 61.5199 32.6811C61.5199 32.5839 61.5199 32.4866 61.5199 32.3893C61.5685 30.2495 61.2768 28.1097 60.9363 25.9699C60.8391 25.4835 60.6932 24.9972 60.5473 24.5109C60.45 24.1218 60.1582 23.976 59.8664 24.0732C58.7479 24.365 57.6293 24.7054 56.5108 24.9972C56.1217 25.0945 55.7813 25.1918 55.4409 25.289C54.8573 23.441 54.1765 21.6902 53.2038 20.0854C53.6415 19.8422 54.0306 19.5991 54.4682 19.3559C54.7114 19.7449 54.9546 20.134 55.1491 20.5717C55.4895 21.2525 55.7813 21.982 56.0731 22.6629C56.2676 23.1006 56.5108 23.2465 56.9485 23.0519C57.678 22.8088 58.3588 22.5656 59.0883 22.2738C59.526 22.1279 59.6719 21.7875 59.526 21.3498C59.2342 20.669 58.9424 19.9395 58.6506 19.2586C58.3102 18.5291 57.9211 17.7997 57.4834 17.1188C56.8026 16.0489 56.0731 15.0763 55.3923 14.055C55.1977 13.8118 54.8573 13.7632 54.6141 13.9577C54.371 14.1522 54.0792 14.3468 53.836 14.5413C53.0579 15.1735 52.2798 15.8057 51.5017 16.438C51.3558 16.5352 51.1613 16.6325 51.0154 16.7784C49.7996 15.2708 48.4865 13.9577 46.9789 12.7905C47.2707 12.4015 47.5625 12.0124 47.8543 11.6234C48.0974 11.8179 48.3406 11.9152 48.4865 12.1097C49.216 12.7905 49.9454 13.4714 50.6749 14.1522C50.9181 14.3954 51.2585 14.444 51.5503 14.1522C52.1339 13.6173 52.6688 13.0823 53.2524 12.5474C53.6415 12.1583 53.6415 11.9152 53.3011 11.5261C52.9606 11.1857 52.5716 10.8453 52.2312 10.4562C51.988 10.213 51.7935 9.96987 51.5503 9.77534C50.9667 9.33765 50.4318 8.85133 49.8482 8.46227C49.1187 7.92732 48.3892 7.44099 47.6597 6.95467C47.4166 6.76014 47.1734 6.61425 46.8816 6.46835C46.4926 6.22519 46.1521 6.32245 45.909 6.76014C45.4713 7.53826 45.0822 8.31638 44.6445 9.04586C44.3527 9.58081 44.0609 10.1158 43.7692 10.6507C42.067 9.77534 40.3649 8.99723 38.4682 8.51091C38.6141 8.02458 38.76 7.58689 38.8573 7.10057C39.4409 7.24647 40.0245 7.39236 40.5594 7.58689C41.143 7.78142 41.7752 8.07321 42.3588 8.31638C42.7965 8.5109 43.0397 8.41364 43.2342 7.97595C43.5746 7.2951 43.8664 6.61425 44.1582 5.9334C44.4014 5.39844 44.3041 5.15528 43.7692 4.91212C43.3315 4.71759 42.8938 4.47443 42.4561 4.37717C40.9971 3.93948 39.5868 3.50178 38.0792 3.11273C37.3497 2.9182 36.6202 2.86957 35.8421 2.7723C35.4044 2.72367 35.1126 2.9182 35.064 3.20999C34.9667 4.03674 34.8695 4.91212 34.8208 5.73887C34.7722 6.41972 34.7236 7.05194 34.6263 7.73279C32.681 7.53826 30.833 7.53826 28.8877 7.78142C28.8391 7.2951 28.7418 6.85741 28.6932 6.37109C28.7904 6.37109 28.8391 6.32246 28.9363 6.32246C30.0549 6.27382 31.222 6.22519 32.3406 6.17656C32.8269 6.17656 33.0701 5.9334 33.0701 5.49571C33.1187 4.71759 33.1187 3.93947 33.1673 3.11273C33.1673 2.82093 33.0701 2.67504 32.8269 2.57777C32.681 2.52914 32.4865 2.48051 32.292 2.48051C30.6385 2.43188 29.0336 2.57777 27.4287 2.82093C26.3588 3.01546 25.3375 3.20999 24.3163 3.45315C23.8299 3.55042 23.684 3.84221 23.8299 4.32853C24.219 5.6416 24.6081 7.00331 24.9971 8.31638C25.0458 8.41364 25.0458 8.5109 25.0458 8.55954C23.2464 9.14312 21.4956 9.82397 19.8421 10.7966C19.5989 10.3589 19.3558 9.96987 19.1126 9.53218C19.6962 9.24039 20.2798 8.89996 20.8634 8.6568C21.447 8.36501 22.0306 8.17048 22.6141 7.87868C22.9546 7.73279 23.0032 7.48963 22.9059 7.1492C22.6628 6.41972 22.371 5.69024 22.1278 4.91212C21.9819 4.47443 21.6415 4.32853 21.2524 4.47443C20.3284 4.86349 19.453 5.30118 18.529 5.69024C18.1886 5.83613 17.8482 6.07929 17.5078 6.27382C16.7783 6.71151 16.0488 7.1492 15.3193 7.58689C14.833 7.87869 14.3953 8.26774 13.909 8.60817C13.6658 8.8027 13.6172 9.19175 13.8117 9.43491C14.0549 9.72671 14.2494 10.0185 14.4926 10.3103C15.1248 11.0884 15.757 11.8665 16.4379 12.6446C16.4865 12.6933 16.5837 12.7905 16.5837 12.8878C16.5837 12.9851 16.5837 13.0823 16.5351 13.131C16.1461 13.52 15.7084 13.8604 15.3193 14.2495C14.6385 14.9304 14.0062 15.6112 13.3254 16.2921C13.0822 16.5352 12.9363 16.7784 12.6932 17.0702C12.3041 16.7784 11.9151 16.4866 11.526 16.1948C11.7205 15.903 11.9151 15.6598 12.1096 15.4167C12.7418 14.7358 13.374 14.055 14.0549 13.3741C14.3467 13.0823 14.3467 12.8392 14.0549 12.4987C13.5199 11.9152 12.985 11.3316 12.4014 10.748C12.0609 10.4076 11.8178 10.4076 11.4774 10.6994C11.1369 10.9911 10.8451 11.3316 10.5534 11.6234C10.2616 11.9152 9.96976 12.1583 9.7266 12.4501C9.28891 12.9851 8.80259 13.5687 8.41353 14.1522C7.87858 14.8817 7.39226 15.5626 6.90594 16.2921C6.71141 16.5839 6.51688 16.827 6.37098 17.1188C6.17645 17.4592 6.22508 17.8969 6.46825 18.0428C6.90594 18.286 7.29499 18.5291 7.73268 18.7723C8.3649 19.1127 8.99712 19.4532 9.58071 19.7449C9.8725 19.8908 10.2129 20.0367 10.5047 20.2313C9.62934 21.9334 8.85123 23.6842 8.3649 25.5808C7.87858 25.4349 7.44089 25.289 6.95457 25.1918C7.1491 24.5595 7.29499 23.976 7.48952 23.3924C7.68405 22.8088 7.97584 22.2252 8.21901 21.6416C8.3649 21.2525 8.31627 21.0094 7.87858 20.8149C7.19773 20.4744 6.46825 20.134 5.73876 19.8422C5.25244 19.5991 5.00928 19.7449 4.76612 20.2313C4.03664 21.7875 3.55031 23.441 3.16125 25.0945C2.91809 26.0671 2.7722 27.0884 2.6263 28.1097C2.52904 28.6446 2.7722 28.8878 3.30715 28.9364C4.2798 29.0337 5.25244 29.0823 6.22509 29.1796C6.71141 29.2282 7.1491 29.2769 7.63542 29.3741C7.44089 31.2221 7.44089 33.0702 7.68405 34.9182C7.19773 34.9668 6.76004 35.0155 6.27372 35.1127C6.27372 35.0155 6.27372 34.9668 6.27372 34.9182C6.22508 33.8483 6.17645 32.7297 6.12782 31.6598C6.12782 31.1735 5.93329 30.979 5.44697 30.9304C4.66885 30.8817 3.93937 30.8817 3.16125 30.8331C2.67493 30.8331 2.4804 31.0276 2.43177 31.5139C2.43177 31.903 2.38314 32.2434 2.43177 32.6325C2.57767 34.1401 2.67493 35.6477 2.86946 37.1553C2.96673 37.982 3.20989 38.7601 3.40441 39.5869C3.50168 40.0246 3.79347 40.1705 4.23116 40.0246C5.20381 39.7328 6.17645 39.4896 7.1491 39.1978C7.58679 39.0519 8.07311 38.906 8.5108 38.8088C9.09438 40.6568 9.77524 42.4076 10.7479 44.0124C10.3102 44.2556 9.92113 44.4987 9.48344 44.7419C9.28891 44.4015 9.09439 44.0611 8.89986 43.7206C8.55943 42.9425 8.21901 42.213 7.87858 41.4349C7.68405 40.9486 7.44089 40.8513 6.95457 41.0459C6.27372 41.289 5.54423 41.5322 4.86338 41.7753C4.37706 41.9212 4.23117 42.2617 4.42569 42.748C4.86338 43.672 5.25244 44.596 5.69013 45.52C5.98192 46.1036 6.27372 46.7358 6.66278 47.2708C7.24636 48.1462 7.87858 49.0215 8.5108 49.8969C8.75396 50.2373 9.04575 50.286 9.38618 50.0428C9.82387 49.7024 10.2129 49.362 10.6506 49.0215C10.8451 48.8756 10.991 48.7297 11.1856 48.5839ZM8.94849 48.7297C7.63542 46.8817 6.51688 44.9851 5.69013 42.9425C6.17645 42.748 6.66278 42.5535 7.1491 42.3103C7.29499 42.6507 7.39226 42.9425 7.53815 43.2343C7.82995 43.8665 8.17037 44.4501 8.5108 45.0823C8.65669 45.3255 8.75396 45.5687 8.89986 45.8118C9.14302 46.2009 9.43481 46.2495 9.82387 46.0063C10.4561 45.6173 11.0883 45.2282 11.6719 44.8392C12.0123 44.596 12.1096 44.3042 11.9151 43.9152C11.6233 43.4288 11.2828 42.9425 11.0397 42.4076C10.602 41.3863 10.1643 40.365 9.77524 39.3437C9.62934 38.9547 9.53207 38.517 9.43481 38.0793C9.28891 37.593 9.04575 37.4957 8.55943 37.593C7.1491 37.9334 5.69013 38.2738 4.2798 38.6142C3.93937 37.8361 3.35578 33.1674 3.50168 32.0489C3.988 32.0489 4.52296 32.0489 5.05791 32.0489C5.05791 32.1462 5.05791 32.2434 5.05791 32.3407C5.10654 33.4592 5.20381 34.6264 5.25244 35.7449C5.30107 36.2799 5.59287 36.4744 6.12782 36.3772C6.85731 36.2313 7.53815 36.134 8.26764 36.0367C8.70533 35.9881 8.89986 35.7449 8.80259 35.3073C8.55943 33.9456 8.5108 32.5352 8.55943 31.1249C8.55943 30.444 8.65669 29.7632 8.70533 29.0823C8.75396 28.596 8.60806 28.3528 8.07311 28.2556C6.66278 28.0611 5.30107 27.8665 3.89074 27.6234C3.8421 27.6234 3.79347 27.6234 3.74484 27.5747C3.74484 26.3589 4.81475 22.4197 5.4956 21.1066C5.98192 21.3012 6.41961 21.4957 6.95457 21.7389C6.76004 22.2738 6.51688 22.8088 6.37098 23.3437C6.12782 24.0732 5.93329 24.8027 5.78739 25.5322C5.69013 25.8726 5.88466 26.1158 6.22509 26.213C7.0032 26.4076 7.78132 26.6021 8.60806 26.748C8.99712 26.8453 9.19165 26.6507 9.28892 26.2617C9.53208 25.4836 9.67797 24.7541 9.96976 24.0246C10.4561 22.7601 10.9424 21.5443 11.6719 20.3772C11.9151 19.9395 11.8664 19.6963 11.4287 19.4532C10.5047 18.8696 9.53208 18.286 8.60806 17.7024C8.26764 17.5079 7.97585 17.3133 7.58679 17.1188C8.80259 15.2222 10.1157 13.4714 11.6719 11.9152C12.0609 12.3042 12.45 12.6446 12.8391 12.9851C12.4986 13.3741 12.2555 13.6659 11.9637 14.0063C11.6719 14.3468 11.3801 14.6872 11.0883 15.0276C10.8451 15.3194 10.602 15.6598 10.3588 15.9516C10.1157 16.3407 10.1643 16.5839 10.5047 16.827C11.0883 17.2647 11.7205 17.7024 12.3041 18.1401C12.7418 18.4319 12.9363 18.3832 13.2281 17.9942C13.8117 17.3133 14.3953 16.5839 15.0275 15.9516C15.8056 15.1735 16.6324 14.444 17.4591 13.7146C17.5564 13.6173 17.7023 13.4714 17.7996 13.3741C17.9941 13.1796 18.0427 12.9364 17.8482 12.6933C17.5078 12.207 17.1673 11.7206 16.7783 11.2343C16.3892 10.6507 15.9515 10.1158 15.5138 9.58081C15.3679 9.38628 15.2707 9.19176 15.1734 8.99723C16.9728 7.73279 18.8695 6.61425 20.9606 5.73887C21.1552 6.22519 21.3497 6.71151 21.5442 7.19783C21.3983 7.2951 21.2524 7.34373 21.1065 7.44099C20.3284 7.83005 19.5989 8.21911 18.8208 8.60817C18.5777 8.70543 18.3345 8.85133 18.0913 8.94859C17.7023 9.19175 17.6537 9.48355 17.8968 9.87261C18.2859 10.4562 18.6749 11.0884 19.0154 11.672C19.3072 12.1097 19.5989 12.207 20.0853 11.9152C20.5716 11.6234 21.1065 11.2829 21.5929 11.0398C22.6141 10.6021 23.6354 10.1644 24.6567 9.77534C25.0458 9.62945 25.4834 9.58081 25.8725 9.43491C26.2616 9.28902 26.4075 9.04586 26.3102 8.60817C25.9698 7.1492 25.6293 5.73887 25.2403 4.2799C25.9211 3.93947 30.5412 3.35589 31.8056 3.45315C31.8056 3.98811 31.8056 4.47443 31.8056 5.05801C31.5625 5.05801 31.3679 5.05801 31.1248 5.05801C30.1521 5.10665 29.1795 5.15528 28.1582 5.25254C27.4774 5.30118 27.2828 5.59297 27.4287 6.27382C27.5746 6.90604 27.6719 7.58689 27.7692 8.21911C27.8664 8.75406 28.061 8.89996 28.5959 8.8027C30.6871 8.5109 32.7783 8.46227 34.8208 8.75407C35.3072 8.8027 35.5503 8.6568 35.6476 8.12185C35.8421 6.80878 36.0366 5.44708 36.2312 4.13401C36.2312 4.03674 36.2798 3.93947 36.2798 3.84221C37.447 3.84221 41.5321 4.96075 42.6992 5.59297C42.5047 6.07929 42.3102 6.56562 42.067 7.05194C41.7266 6.90604 41.3862 6.76014 41.0458 6.61425C40.1704 6.32245 39.295 6.07929 38.4196 5.83613C37.9819 5.69024 37.7388 5.88477 37.5929 6.32246C37.3983 7.10057 37.2038 7.83005 37.0579 8.60817C36.9606 8.94859 37.1552 9.19176 37.4956 9.28902C37.8847 9.38628 38.2251 9.53218 38.6141 9.62944C39.6841 9.87261 40.6081 10.3103 41.5807 10.748C42.2616 11.0884 42.8938 11.4288 43.5746 11.7693C43.9151 11.9152 44.1582 11.8665 44.3527 11.5261C45.0822 10.3103 45.8117 9.14312 46.5412 7.92732C46.5898 7.83005 46.6385 7.73279 46.7357 7.58689C46.9789 7.78142 47.2707 7.92732 47.5138 8.12185C48.4378 8.8027 49.4105 9.48355 50.3345 10.213C50.8208 10.6021 51.2585 10.9911 51.6962 11.4288C52.0366 11.7206 52.0366 11.7693 51.6962 12.0611C51.4044 12.3042 51.1612 12.596 50.9181 12.8392C50.1886 12.207 49.5078 11.5747 48.8269 10.9911C48.5351 10.748 48.2433 10.5048 47.9029 10.3103C47.5625 10.0671 47.3193 10.1158 47.0275 10.4562C46.5898 11.0884 46.1521 11.672 45.7144 12.3042C45.4226 12.6933 45.4713 12.8878 45.8603 13.2282C46.5412 13.8118 47.2707 14.3954 47.9029 15.0276C48.681 15.8057 49.3619 16.6325 50.14 17.4592C50.1886 17.5079 50.2372 17.5565 50.2372 17.6051C50.7236 18.1401 50.8208 18.1887 51.453 17.751C52.3771 17.0702 53.3011 16.3893 54.2737 15.7085C54.4682 15.5626 54.7114 15.4167 54.9546 15.2708C56.2676 17.1188 57.3375 19.0155 58.1643 21.058C57.678 21.2525 57.1916 21.4471 56.7053 21.6416C56.6081 21.3498 56.5108 21.058 56.3649 20.7662C56.0731 20.134 55.7327 19.5018 55.3923 18.8696C55.2464 18.6264 55.1491 18.3832 55.0032 18.1401C54.76 17.751 54.4682 17.7024 54.0792 17.9456C53.447 18.3346 52.8147 18.7237 52.1825 19.1127C51.8421 19.3559 51.7448 19.6477 51.9394 20.0367C52.2312 20.5717 52.5716 21.1066 52.8634 21.6902C53.3011 22.6629 53.6901 23.6842 54.0792 24.7054C54.2251 25.0945 54.3223 25.5322 54.4196 25.9699C54.5169 26.4076 54.8087 26.5535 55.2464 26.4076C56.7053 26.0671 58.1157 25.7267 59.5746 25.3863C59.9151 25.9699 60.4986 30.7358 60.3527 31.9516C59.8178 31.9516 59.3315 31.9516 58.7479 31.9516C58.7479 31.7085 58.7479 31.4653 58.7479 31.2222C58.6992 30.2009 58.602 29.1796 58.5534 28.1583C58.5047 27.672 58.2129 27.4775 57.7266 27.5261C56.9971 27.672 56.2676 27.7693 55.5381 27.9152C55.1491 27.9638 55.0032 28.207 55.0518 28.6446C55.1491 29.5687 55.295 30.4927 55.295 31.4167C55.295 32.5352 55.1977 33.6538 55.1491 34.7723C55.1005 35.3559 55.2464 35.5504 55.8299 35.6477C57.1916 35.8422 58.602 36.0367 59.9637 36.2313C60.0123 36.2313 60.0609 36.2313 60.1096 36.2799C59.9151 38.517 59.1369 40.6082 58.4075 42.748C57.8725 42.5048 57.4348 42.3103 56.9485 42.1158C57.143 41.6294 57.3375 41.1431 57.4834 40.6568C57.7266 39.9273 57.9211 39.1492 58.1157 38.4197C58.2129 38.0307 58.067 37.7389 57.678 37.6416C56.8999 37.4471 56.1704 37.3012 55.3923 37.1067C55.0032 37.0094 54.76 37.1553 54.6628 37.593C54.4682 38.3225 54.2737 39.0519 54.0306 39.7328C53.7874 40.4136 53.4956 41.0459 53.2038 41.6781C52.912 42.3103 52.5716 42.9425 52.2312 43.5747C52.0853 43.9152 52.1339 44.1583 52.4257 44.3528C52.8634 44.6446 53.3011 44.8878 53.7388 45.131C54.2737 45.4714 54.76 45.8118 55.295 46.1036C55.6354 46.2981 55.9758 46.4927 56.3649 46.6872C55.1491 48.5839 53.836 50.3346 52.2798 51.9395C51.8907 51.5504 51.5017 51.21 51.2099 50.9182C52.0366 49.8969 52.912 48.8756 53.6901 47.903C53.9819 47.5626 53.8847 47.3194 53.5442 47.0276C52.9606 46.5899 52.3284 46.1522 51.7448 45.7146C51.3072 45.4228 51.1126 45.4714 50.8208 45.8605C50.1886 46.5899 49.605 47.368 48.9242 48.0489C48.1947 48.827 47.3679 49.4592 46.5898 50.1887C46.4439 50.286 46.298 50.4319 46.2494 50.5778C46.2008 50.7237 46.1521 50.9182 46.2008 51.0641C46.298 51.3073 46.4439 51.5018 46.5898 51.6963C47.1248 52.4258 47.7084 53.1553 48.2433 53.9334C48.4865 54.2738 48.7296 54.5656 48.9728 54.906C47.1248 56.2191 45.2281 57.3376 43.1856 58.1644C42.991 57.6781 42.7965 57.1917 42.602 56.7054C42.8938 56.6082 43.1369 56.5109 43.4287 56.365C44.0609 56.0246 44.6932 55.6842 45.3254 55.3437C45.5685 55.1978 45.8117 55.1006 46.0062 54.9547C46.4439 54.7115 46.4926 54.4197 46.2494 53.982C45.8603 53.3498 45.4713 52.7662 45.0822 52.134C44.8391 51.7449 44.5473 51.6963 44.1582 51.8908C43.6233 52.1826 43.1369 52.5231 42.602 52.7662C41.5807 53.2525 40.5108 53.6416 39.4409 54.0793C39.0518 54.2252 38.6141 54.2738 38.2251 54.4197C37.836 54.517 37.6901 54.8088 37.7874 55.1978C38.1278 56.6082 38.4682 57.9699 38.8087 59.3802C38.8087 59.4288 38.8087 59.4775 38.8573 59.5747C37.9819 59.9152 33.216 60.4987 32.292 60.3528C32.292 59.8665 32.292 59.3316 32.292 58.7966C32.3892 58.7966 32.5351 58.7966 32.6324 58.7966C33.7996 58.6994 34.9667 58.6507 36.1339 58.5535C36.6202 58.5048 36.7661 58.213 36.6689 57.7267C36.523 56.9972 36.3771 56.2191 36.2798 55.4896C36.2312 55.1006 36.0366 54.9547 35.6476 55.0033C35.0154 55.0519 34.3831 55.1492 33.7509 55.1978C32.292 55.2951 30.833 55.2465 29.374 55.1006C29.1309 55.0519 28.8877 55.1006 28.6932 55.1978C28.5959 55.2465 28.4986 55.441 28.45 55.5869C28.3041 56.5595 28.1582 57.5808 28.0123 58.5535C27.9637 59.0398 27.8664 59.4775 27.7692 60.0124C27.1856 59.9152 26.6506 59.8665 26.1157 59.7206C25.0458 59.4288 24.0245 59.137 22.9546 58.7966C22.4682 58.6507 22.0306 58.4562 21.5442 58.3103C21.3983 58.2617 21.3011 58.1644 21.3983 58.0185C21.5929 57.5808 21.7874 57.1918 21.9819 56.7541C22.2737 56.8513 22.5169 56.9972 22.8087 57.0945C23.7813 57.3863 24.7053 57.6781 25.678 57.9699C26.067 58.0671 26.3588 57.9212 26.4561 57.5322C26.6506 56.7541 26.8451 55.9759 26.991 55.1978C27.0883 54.8574 26.8451 54.6142 26.5047 54.517C25.7752 54.3224 24.9971 54.1279 24.3163 53.8361C23.0518 53.3498 21.7874 52.8149 20.6689 52.134C20.2312 51.8422 19.988 51.8908 19.6962 52.3772C18.9667 53.5443 18.2859 54.7115 17.5564 55.8787C17.5078 55.9759 17.4591 56.0732 17.3619 56.2191C17.1187 56.0732 16.8755 55.8787 16.681 55.7328C15.7084 55.0033 14.6871 54.2738 13.7144 53.4957C13.2281 53.1066 12.7904 52.669 12.3527 52.2799C12.1582 52.134 12.2068 51.9881 12.3527 51.8422C12.6445 51.5504 12.9363 51.21 13.2281 50.8696C14.2008 51.8908 15.1734 52.669 16.1947 53.4471C16.5837 53.7389 16.8269 53.6902 17.0701 53.3012C17.5078 52.7176 17.9454 52.0854 18.3831 51.5018C18.6749 51.1127 18.6263 50.8696 18.2372 50.5778C17.1673 49.6538 16.0488 48.7784 15.0761 47.7085C14.5898 47.1735 14.1035 46.5899 13.6172 46.055C13.3254 45.7632 13.1309 45.7146 12.7904 45.9577C11.9151 46.5899 11.0397 47.2221 10.1643 47.8544C9.58071 48.1948 9.28891 48.438 8.94849 48.7297Z" fill="#964E30"/>
<path d="M32.05 53.8844C44.0135 53.8358 54.1777 44.1093 53.8859 31.4649C53.6427 19.9391 44.2081 9.92086 31.6123 10.0668C20.0379 10.2127 9.48466 19.8418 10.1169 33.1184C10.6518 44.1579 19.7461 53.8358 32.05 53.8844ZM30.8828 11.1367C43.5758 10.5531 52.816 20.6686 52.816 31.8054C52.816 43.4771 43.4786 52.7658 31.9041 52.7172C20.3783 52.6686 11.2354 43.4285 11.1382 31.854C11.2841 20.2795 20.4269 11.6716 30.8828 11.1367Z" fill="#964E30"/>
<g clip-path="url(#clip0)">
<path d="M54.3842 6.60365C52.7146 5.63173 50.8523 7.50616 49.7607 8.61693C47.2563 11.255 45.1372 14.3096 42.7611 17.0866C40.1282 20.1412 37.688 23.1958 34.9909 26.1811C33.4497 27.8473 31.7801 29.6523 30.7526 31.735C28.4408 29.305 26.4501 26.667 23.8814 24.5149C22.0192 22.9876 18.9368 21.8769 19.001 25.5563C19.1294 30.3466 23.0466 35.4839 25.9364 38.7467C27.1565 40.1352 28.7619 41.593 30.6242 41.6625C32.8717 41.8013 35.1835 38.8855 36.5321 37.2888C38.9082 34.5119 40.8347 31.3877 43.0179 28.5415C45.8435 24.7926 48.7332 21.1131 51.4945 17.2948C53.2283 14.9344 58.6867 9.10278 54.3842 6.60365ZM21.8264 25.2786C21.7622 25.2786 21.698 25.2786 21.5695 25.3479C21.3127 25.2786 21.12 25.2091 20.8632 25.0702C21.0558 24.9314 21.3769 25.0008 21.8264 25.2786Z" fill="white"/>
</g>
<defs>
<clipPath id="clip0">
<rect width="37" height="40" fill="white" transform="translate(19 4)"/>
</clipPath>
</defs>
</svg>
