<svg width="448" height="53" viewBox="0 0 448 53" fill="none" xmlns="http://www.w3.org/2000/svg">
<path d="M27.9255 45.6996L28.3968 47.5965H34.7596L32.8743 43.9176L19.6775 4.31128L0 48.6887C2.27803 47.6157 4.04547 46.7534 5.30231 46.102C6.87336 45.2589 8.36587 44.4541 9.77981 43.6876C11.233 42.8829 12.6666 42.1164 14.0806 41.3883C15.4945 40.6218 16.9085 39.8554 18.3224 39.0889C19.7364 38.2842 21.2092 37.4602 22.741 36.6171C23.2909 36.3106 23.9586 36.0615 24.7441 35.8699L27.9255 45.6996ZM10.7224 37.3069L19.0294 18.6822L22.9767 30.6388C22.4268 30.9454 21.5824 31.4053 20.4433 32.0184C19.3043 32.6316 18.1064 33.2831 16.8496 33.9729C15.5927 34.6627 14.3948 35.3333 13.2558 35.9848C12.1168 36.598 11.2723 37.0387 10.7224 37.3069Z" fill="#964E30"/>
<path d="M55.1044 45.0098L56.6951 48.1139L61.0548 43.7451L59.3463 42.0206L49.2719 28.2245L58.7571 19.257L37.1944 4.88612L38.5494 43.1703L37.8425 46.102H44.5587L43.7928 43.0553L43.2626 28.4545L55.1044 45.0098ZM42.7913 14.7733L50.568 19.9469L43.2037 26.9024L42.7913 14.7733Z" fill="#964E30"/>
<path d="M74.1002 45.1247V47.7115H80.0506L79.2847 44.6074L76.2801 17.1302L83.8211 16.038L86.1777 16.3829L88.2986 10.8644L85.2351 11.9566L66.0879 14.4859L63.7902 14.0835L61.6693 19.6594L64.7917 18.5672L71.2134 17.7625L74.1002 45.1247Z" fill="#964E30"/>
<path d="M91.5228 41.5607L90.698 44.4924H96.6484V41.9631L97.5321 28.167L112.85 25.6952L112.143 41.2733L111.377 44.32H118.093L117.386 41.3883L118.682 11.4393L119.448 8.45011H112.732L113.439 11.3243L113.086 20.2918L97.8856 22.821L98.5926 12.0141L99.3585 8.96746H93.3492V11.4967L91.5228 41.5607Z" fill="#964E30"/>
<path d="M140.772 45.0098L142.363 48.1139L146.723 43.7451L145.014 42.0206L134.94 28.2245L144.425 19.257L122.862 4.88612L124.217 43.1703L123.51 46.102H130.226L129.461 43.0553L128.93 28.4545L140.772 45.0098ZM128.459 14.7733L136.236 19.9469L128.871 26.9024L128.459 14.7733Z" fill="#964E30"/>
<path d="M164.776 49.8384L179.917 24.1432L162.655 3.16161L147.69 23.8557L164.776 49.8384ZM153.994 24.0282L162.89 11.6117L173.672 24.603L164.54 39.9512L153.994 24.0282Z" fill="#964E30"/>
<path d="M203.093 35.3525L181.883 0V38.1117L181.412 41.0434H188.128L187.363 38.1117V18.9696L207.629 53L209.043 14.8308L209.868 11.8991H203.093L203.8 15.6356L203.093 35.3525Z" fill="#964E30"/>
<path d="M242.846 46.1594L241.02 49.6659H247.913V47.3091L254.393 19.0271L261.935 35.0651L272.186 21.4414L274.483 44.4924V47.0792H280.434L279.727 43.9176L276.015 7.7603L262.936 25.1204L252.626 3.33406L242.846 46.1594Z" fill="#964E30"/>
<path d="M300.878 45.4696L302.527 47.9989L307.064 43.5152L304.648 41.9631L291.628 27.5347L302.056 27.8796L305.119 28.5694V22.0163L302.056 22.7636L291.864 23.3959L304.825 11.0944L307.358 9.42733L302.822 5.00109L301.172 7.47288L281.848 25.1204C284.715 28.1095 287.74 31.3478 290.921 34.8351C294.102 38.2842 297.421 41.829 300.878 45.4696Z" fill="#964E30"/>
<path d="M328.447 45.0098L330.038 48.1139L334.398 43.7451L332.689 42.0206L322.615 28.2245L332.1 19.257L310.537 4.88612L311.892 43.1703L311.185 46.102H317.901L317.136 43.0553L316.605 28.4545L328.447 45.0098ZM316.134 14.7733L323.911 19.9469L316.546 26.9024L316.134 14.7733Z" fill="#964E30"/>
<path d="M341.61 13.7961V11.2093H335.66L336.485 14.256L338.606 39.2039V41.7332H344.556L343.79 38.6866L341.61 13.7961Z" fill="#964E30"/>
<path d="M347.481 5.00109V47.9989L371.93 24.3156L347.481 5.00109ZM352.606 35.8124V15.6356L364.154 24.7755L352.606 35.8124Z" fill="#964E30"/>
<path d="M378.777 13.7961V11.2093H372.827L373.652 14.256L375.773 39.2039V41.7332H381.723L380.957 38.6866L378.777 13.7961Z" fill="#964E30"/>
<path d="M411.1 45.6996L411.572 47.5965H417.934L416.049 43.9176L402.852 4.31128L383.175 48.6887C385.453 47.6157 387.22 46.7534 388.477 46.102C390.048 45.2589 391.541 44.4541 392.954 43.6876C394.408 42.8829 395.841 42.1164 397.255 41.3883C398.669 40.6218 400.083 39.8554 401.497 39.0889C402.911 38.2842 404.384 37.4602 405.916 36.6171C406.466 36.3106 407.133 36.0615 407.919 35.8699L411.1 45.6996ZM393.897 37.3069L402.204 18.6822L406.151 30.6388C405.602 30.9454 404.757 31.4053 403.618 32.0184C402.479 32.6316 401.281 33.2831 400.024 33.9729C398.767 34.6627 397.569 35.3333 396.43 35.9848C395.291 36.598 394.447 37.0387 393.897 37.3069Z" fill="#964E30"/>
<path d="M441.225 35.3525L420.016 0V38.1117L419.544 41.0434H426.261L425.495 38.1117V18.9696L445.761 53L447.175 14.8308L448 11.8991H441.225L441.932 15.6356L441.225 35.3525Z" fill="#964E30"/>
</svg>
