<svg width="694" height="82" viewBox="0 0 694 82" fill="none" xmlns="http://www.w3.org/2000/svg">
<path d="M43.2596 70.705L43.9897 73.6399H53.8463L50.9258 67.9479L30.4825 6.67028L0 75.3297C3.52891 73.6696 6.26686 72.3355 8.21385 71.3276C10.6476 70.0231 12.9596 68.778 15.15 67.5922C17.4012 66.3471 19.622 65.1612 21.8123 64.0347C24.0027 62.8489 26.193 61.6631 28.3834 60.4772C30.5738 59.2321 32.8554 57.9573 35.2283 56.6529C36.0801 56.1786 37.1144 55.7932 38.3313 55.4967L43.2596 70.705ZM16.6102 57.7202L29.4786 28.9046L35.5933 47.4035C34.7415 47.8778 33.4334 48.5893 31.6689 49.538C29.9045 50.4866 28.0488 51.4946 26.1018 52.5618C24.1548 53.6291 22.2991 54.6667 20.5346 55.6746C18.7702 56.6233 17.462 57.3051 16.6102 57.7202Z" fill="white"/>
<path d="M85.3627 69.6377L87.8268 74.4404L94.5804 67.6811L91.9337 65.013L76.3274 43.6681L91.0211 29.7939L57.6181 7.55965L59.7172 66.7918L58.622 71.3276H69.0262L67.8398 66.6139L67.0184 44.0239L85.3627 69.6377ZM66.2883 22.8568L78.3353 30.8612L66.9271 41.6226L66.2883 22.8568Z" fill="white"/>
<path d="M114.789 69.8156V73.8178H124.007L122.821 69.0152L118.166 26.5033L129.848 24.8134L133.499 25.3471L136.784 16.8091L132.038 18.4989L102.377 22.4122L98.8178 21.7896L95.5323 30.4165L100.369 28.7267L110.317 27.4816L114.789 69.8156Z" fill="white"/>
<path d="M141.779 64.3015L140.501 68.8373H149.719V64.9241L151.088 43.5792L174.817 39.7549L173.721 63.8568L172.535 68.5705H182.939L181.844 64.0347L183.852 17.6985L185.038 13.0738H174.634L175.729 17.5206L175.182 31.3948L151.635 35.308L152.73 18.5879L153.917 13.8742H144.608V17.7874L141.779 64.3015Z" fill="white"/>
<path d="M218.071 69.6377L220.535 74.4404L227.289 67.6811L224.642 65.013L209.036 43.6681L223.73 29.7939L190.327 7.55965L192.426 66.7918L191.331 71.3276H201.735L200.548 66.6139L199.727 44.0239L218.071 69.6377ZM198.997 22.8568L211.044 30.8612L199.636 41.6226L198.997 22.8568Z" fill="white"/>
<path d="M255.255 77.1085L278.71 37.3536L251.97 4.89154L228.788 36.9089L255.255 77.1085ZM238.554 37.1757L252.335 17.9653L269.036 38.0651L254.89 61.8113L238.554 37.1757Z" fill="white"/>
<path d="M314.612 54.6963L281.757 0V58.9653L281.027 63.5011H291.431L290.245 58.9653V29.3492L321.64 82L323.83 22.9458L325.108 18.41H314.612L315.708 24.1909L314.612 54.6963Z" fill="white"/>
<path d="M376.195 71.4165L373.366 76.8417H384.044V73.1952L394.083 29.4382L405.765 54.2516L421.645 33.1735L425.204 68.8373V72.8395H434.422L433.327 67.9479L427.577 12.0065L407.316 38.8655L391.345 5.15835L376.195 71.4165Z" fill="white"/>
<path d="M466.091 70.3493L468.647 74.2625L475.674 67.3254L471.932 64.9241L451.763 42.6009L467.917 43.1345L472.663 44.2017V34.0629L467.917 35.2191L452.128 36.1974L472.206 17.1649L476.131 14.5857L469.103 7.73753L466.548 11.5618L436.613 38.8655C441.054 43.4902 445.739 48.5004 450.668 53.8959C455.596 59.2321 460.737 64.7166 466.091 70.3493Z" fill="white"/>
<path d="M508.8 69.6377L511.264 74.4404L518.018 67.6811L515.371 65.013L499.765 43.6681L514.458 29.7939L481.055 7.55965L483.154 66.7918L482.059 71.3276H492.463L491.277 66.6139L490.456 44.0239L508.8 69.6377ZM489.726 22.8568L501.773 30.8612L490.364 41.6226L489.726 22.8568Z" fill="white"/>
<path d="M529.191 21.3449V17.3427H519.973L521.251 22.0564L524.537 60.6551V64.5683H533.754L532.568 59.8547L529.191 21.3449Z" fill="white"/>
<path d="M538.285 7.73753V74.2625L576.16 37.6204L538.285 7.73753ZM546.225 55.4078V24.1909L564.113 38.3319L546.225 55.4078Z" fill="white"/>
<path d="M586.767 21.3449V17.3427H577.549L578.826 22.0564L582.112 60.6551V64.5683H591.33L590.143 59.8547L586.767 21.3449Z" fill="white"/>
<path d="M636.838 70.705L637.568 73.6399H647.425L644.504 67.9479L624.061 6.67028L593.579 75.3297C597.108 73.6696 599.845 72.3355 601.792 71.3276C604.226 70.0231 606.538 68.778 608.729 67.5922C610.98 66.3471 613.201 65.1612 615.391 64.0347C617.581 62.8489 619.772 61.6631 621.962 60.4772C624.152 59.2321 626.434 57.9573 628.807 56.6529C629.659 56.1786 630.693 55.7932 631.91 55.4967L636.838 70.705ZM610.189 57.7202L623.057 28.9046L629.172 47.4035C628.32 47.8778 627.012 48.5893 625.248 49.538C623.483 50.4866 621.627 51.4946 619.68 52.5618C617.733 53.6291 615.878 54.6667 614.113 55.6746C612.349 56.6233 611.041 57.3051 610.189 57.7202Z" fill="white"/>
<path d="M683.505 54.6963L650.649 0V58.9653L649.919 63.5011H660.323L659.137 58.9653V29.3492L690.532 82L692.722 22.9458L694 18.41H683.505L684.6 24.1909L683.505 54.6963Z" fill="white"/>
</svg>
